<?xml version="1.0" encoding="UTF-8"?>
<svg id="Layer_1" xmlns="http://www.w3.org/2000/svg" version="1.1" viewBox="0 0 722.2 197.5">
  <!-- Generator: Adobe Illustrator 30.2.1, SVG Export Plug-In . SVG Version: 2.1.1 Build 1)  -->
  <defs>
    <style>
      .st0 {
        fill: #00b2f0;
      }

      .st1 {
        fill: #fff;
      }
    </style>
  </defs>
  <g>
    <polygon class="st1" points="182.4 83.3 182.4 195.9 191.9 195.9 191.9 143.8 240.3 143.8 240.3 135.3 191.9 135.3 191.9 92 246.3 92 246.3 83.3 182.4 83.3"/>
    <path class="st1" d="M261.3,119.6h9.2v12.4h.3c5.9-7.8,14.8-13.4,24.7-13.4s3.1.2,4.5.5v9c-1.4-.3-2.9-.5-4.7-.5-10.4,0-18.7,5.4-24.9,14.9v53.4h-9.2v-76.4h0Z"/>
    <path class="st1" d="M378.4,157.7c0-17.7-12.9-31.3-30.5-31.3s-30.5,13.5-30.5,31.3,12.9,31.4,30.5,31.4,30.5-13.5,30.5-31.4M308.3,157.7c0-22.2,16.8-39.7,39.7-39.7s39.7,17.4,39.7,39.7-16.8,39.8-39.7,39.8-39.7-17.4-39.7-39.8"/>
    <path class="st1" d="M408.9,119.6h9.2v10.4l.3.2c6.7-6.2,16.8-12.1,29.1-12.1s14.8,2.5,19.8,7.6c5.1,5.3,7,12.3,7,22.7v47.6h-9.2v-46.4c0-8.4-1.2-13.8-5-17.6-3.6-3.6-8.6-5.4-14.8-5.4-10.3,0-19.9,5.1-27.2,12.4v56.9h-9.2v-76.4h0Z"/>
    <path class="st1" d="M490.6,119.6h15.9v-21.5l9.2-2.2v23.6h24.6v8.2h-24.6v44.5c0,11,4.5,16.8,13.8,16.8s7.8-.9,10.7-2.3v8.2c-3.3,1.5-7.6,2.5-12.3,2.5-14.5,0-21.5-9.2-21.5-24.6v-45.1h-15.9v-8.2h0Z"/>
    <path class="st1" d="M559,119.6h9.2v76.4h-9.2v-76.4ZM556.5,92.8c0-3.9,3.1-7.2,7-7.2s7.2,3.3,7.2,7.2-3.1,7-7.2,7-7-3.1-7-7"/>
    <path class="st1" d="M652.2,152.5c-.3-20.1-14.5-26.1-25.3-26.1s-26.1,8.9-28,26.1h53.4-.1ZM630.3,197.5c-23.8,0-40.8-15.7-40.8-39.5s16.7-40,37.5-40,34.1,12.8,34.1,35.8-.2,4.8-.3,6.4h-62.1c1.1,17.6,13.5,28.9,32,28.9s18.8-3.3,26-8.6v9.6c-7,4.5-17,7.3-26.4,7.3"/>
    <path class="st1" d="M682.5,119.6h9.2v12.4h.3c5.9-7.8,14.8-13.4,24.7-13.4s3.1.2,4.5.5v9c-1.4-.3-3-.5-4.7-.5-10.4,0-18.7,5.4-24.9,14.9v53.4h-9.2v-76.4h.1Z"/>
  </g>
  <g>
    <polygon class="st0" points="84.1 21.9 99.4 78.3 155.7 93.5 99.4 108.8 84.1 165.1 68.8 108.8 12.5 93.5 68.8 78.3 84.1 21.9"/>
    <polygon class="st0" points="147.3 0 140.9 23.9 117 30.3 140.9 36.8 147.3 60.6 153.8 36.8 177.7 30.3 153.8 23.9 147.3 0"/>
    <polygon class="st0" points="25.5 120 30.9 140.1 51.1 145.6 30.9 151 25.5 171.1 20.1 151 0 145.6 20.1 140.1 25.5 120"/>
  </g>
</svg>